<?xml version="1.0" encoding="utf-8"?>
<!-- Generator: Adobe Illustrator 14.0.0, SVG Export Plug-In  -->
<!DOCTYPE svg PUBLIC "-//W3C//DTD SVG 1.1//EN" "http://www.w3.org/Graphics/SVG/1.1/DTD/svg11.dtd" [
	<!ENTITY ns_flows "http://ns.adobe.com/Flows/1.0/">
]>
<svg version="1.1"
	 xmlns="http://www.w3.org/2000/svg" xmlns:xlink="http://www.w3.org/1999/xlink" xmlns:a="http://ns.adobe.com/AdobeSVGViewerExtensions/3.0/"
	 x="0px" y="0px" width="84px" height="82px" viewBox="-17.725 -5.166 84 82" enable-background="new -17.725 -5.166 84 82"
	 xml:space="preserve">
<defs>
</defs>
<path d="M11.758,48.249C11.757,48.249,11.758,48.249,11.758,48.249l-0.241-0.002C5.037,48.114-0.128,42.735,0.002,36.255
	c0.13-6.35,5.399-11.517,11.746-11.517l0.244,0.002c6.48,0.131,11.646,5.51,11.516,11.991
	C23.378,43.082,18.106,48.249,11.758,48.249L11.758,48.249z M11.748,25.739c-5.807,0-10.628,4.727-10.746,10.537
	c-0.119,5.928,4.606,10.849,10.534,10.97l0.221,0.002c5.81,0,10.633-4.727,10.751-10.537c0.119-5.929-4.606-10.851-10.535-10.97
	L11.748,25.739L11.748,25.739z"/>
<line fill="none" stroke="#000000" stroke-linecap="round" stroke-linejoin="round" x1="41.131" y1="37.089" x2="26.386" y2="69.057"/>
<line fill="none" stroke="#000000" stroke-linecap="round" stroke-linejoin="round" x1="59.088" y1="37.453" x2="26.386" y2="69.057"/>
<line fill="none" stroke="#000000" stroke-linecap="round" stroke-linejoin="round" x1="59.088" y1="37.453" x2="27.692" y2="4.548"/>
<line fill="none" stroke="#000000" stroke-linecap="round" stroke-linejoin="round" x1="41.131" y1="37.089" x2="27.692" y2="4.548"/>
<path d="M11.1,72.985c-0.028,0-0.056,0-0.085-0.001c-3.407-0.069-5.149-4.311-5.987-6.35c-0.979-2.385-1.713-4.965-2.381-8.367
	c-1.033-5.241-1.568-10.709-1.684-17.21c-0.005-0.276,0.215-0.504,0.491-0.509c0.312-0.021,0.504,0.215,0.509,0.491
	c0.114,6.44,0.644,11.853,1.664,17.035C4.283,61.41,5,63.933,5.953,66.254c0.756,1.842,2.33,5.675,5.082,5.73
	c0.021,0,0.041,0,0.062,0c2.716,0,4.423-3.721,5.247-5.516c1.041-2.272,1.86-4.765,2.656-8.081
	c1.215-5.076,1.985-10.623,2.354-16.957c0.016-0.275,0.248-0.484,0.528-0.47c0.275,0.016,0.486,0.252,0.47,0.528
	c-0.372,6.393-1.151,11.997-2.38,17.131c-0.812,3.382-1.65,5.931-2.721,8.265C16.341,68.872,14.453,72.985,11.1,72.985L11.1,72.985z
	"/>
<polygon points="26.386,69.057 41.131,37.089 27.692,4.548 59.088,37.453 "/>
<path d="M22.047,32.438c-0.272,0-0.495-0.218-0.5-0.491c-0.115-6.444-0.645-11.857-1.666-17.036
	c-0.656-3.336-1.373-5.858-2.325-8.178c-0.756-1.842-2.329-5.675-5.082-5.732c-0.02,0-0.039,0-0.06,0
	C9.695,1,7.99,4.722,7.167,6.518c-1.046,2.278-1.865,4.769-2.657,8.078c-1.23,5.132-1.979,10.521-2.356,16.958
	c-0.017,0.275-0.266,0.48-0.528,0.47c-0.275-0.016-0.486-0.252-0.47-0.528c0.381-6.498,1.138-11.941,2.382-17.132
	c0.808-3.375,1.647-5.923,2.722-8.262c0.916-2.001,2.797-6.18,6.235-6.1c3.408,0.071,5.15,4.313,5.987,6.352
	c0.978,2.383,1.712,4.962,2.38,8.365c1.033,5.237,1.568,10.707,1.686,17.211c0.005,0.276-0.215,0.504-0.491,0.509
	C22.053,32.438,22.05,32.438,22.047,32.438L22.047,32.438z"/>
</svg>
